name Run_500 01_newCOP3_v24.mot
datacolumns 19
datarows 25
range 4.11875000 4.14375000
endheader
                time	   R_ground_force_vx	   R_ground_force_vy	   R_ground_force_vz	   R_ground_force_px	   R_ground_force_py	   R_ground_force_pz	   L_ground_force_vx	   L_ground_force_vy	   L_ground_force_vz	   L_ground_force_px	   L_ground_force_py	   L_ground_force_pz	   R_ground_torque_x	   R_ground_torque_y	   R_ground_torque_z	   L_ground_torque_x	   L_ground_torque_y	   L_ground_torque_z	
          4.11875000	       -189.23403900	       1490.75000000	         20.35819800	          1.18335400	          0.00000000	         -0.29894500	          0.00000000	          0.00000000	          0.00000000	          0.00000000	          0.00000000	          0.00000000	         -0.00000000	          0.94261700	         -0.00000000	          0.00000000	          0.00000000	          0.00000000	
          4.11979200	       -190.25187700	       1511.86145000	         25.10385500	          1.17972900	          0.00000000	         -0.29938400	          0.00000000	          0.00000000	          0.00000000	          0.00000000	          0.00000000	          0.00000000	         -0.00000000	          0.42385500	         -0.00000000	          0.00000000	          0.00000000	          0.00000000	
          4.12083300	       -190.79599000	       1532.44799800	         29.78331400	          1.17609000	          0.00000000	         -0.29980900	          0.00000000	          0.00000000	          0.00000000	          0.00000000	          0.00000000	          0.00000000	          0.00000000	         -0.09436000	          0.00000000	          0.00000000	          0.00000000	          0.00000000	
          4.12187500	       -190.81965600	       1552.52111800	         34.36957200	          1.17242500	          0.00000000	         -0.30022200	          0.00000000	          0.00000000	          0.00000000	          0.00000000	          0.00000000	          0.00000000	          0.00000000	         -0.61022000	          0.00000000	          0.00000000	          0.00000000	          0.00000000	
          4.12291700	       -190.28454600	       1572.09228500	         38.83657800	          1.16872300	          0.00000000	         -0.30062200	          0.00000000	          0.00000000	          0.00000000	          0.00000000	          0.00000000	          0.00000000	          0.00000000	         -1.12195900	          0.00000000	          0.00000000	          0.00000000	          0.00000000	
          4.12395800	       -189.16159100	       1591.17163100	         43.15960300	          1.16497400	          0.00000000	         -0.30100900	          0.00000000	          0.00000000	          0.00000000	          0.00000000	          0.00000000	          0.00000000	          0.00000000	         -1.62785900	          0.00000000	          0.00000000	          0.00000000	          0.00000000	
          4.12500000	       -187.43141200	       1609.76757800	         47.31558200	          1.16117200	          0.00000000	         -0.30138400	          0.00000000	          0.00000000	          0.00000000	          0.00000000	          0.00000000	          0.00000000	          0.00000000	         -2.12626400	          0.00000000	          0.00000000	          0.00000000	          0.00000000	
          4.12604200	       -185.08474700	       1627.88635300	         51.28344700	          1.15731200	          0.00000000	         -0.30174700	          0.00000000	          0.00000000	          0.00000000	          0.00000000	          0.00000000	          0.00000000	          0.00000000	         -2.61558100	          0.00000000	          0.00000000	          0.00000000	          0.00000000	
          4.12708300	       -182.12248200	       1645.53088400	         55.04441500	          1.15338900	          0.00000000	         -0.30209700	          0.00000000	          0.00000000	          0.00000000	          0.00000000	          0.00000000	          0.00000000	          0.00000000	         -3.09429400	          0.00000000	          0.00000000	          0.00000000	          0.00000000	
          4.12812500	       -178.55538900	       1662.70092800	         58.58220300	          1.14940400	          0.00000000	         -0.30243500	          0.00000000	          0.00000000	          0.00000000	          0.00000000	          0.00000000	          0.00000000	          0.00000000	         -3.56097200	          0.00000000	          0.00000000	          0.00000000	          0.00000000	
          4.12916700	       -174.40371700	       1679.39270000	         61.88325500	          1.14535800	          0.00000000	         -0.30276100	          0.00000000	          0.00000000	          0.00000000	          0.00000000	          0.00000000	          0.00000000	          0.00000000	         -4.01427000	          0.00000000	          0.00000000	          0.00000000	          0.00000000	
          4.13020800	       -169.69633500	       1695.59887700	         64.93686700	          1.14125400	          0.00000000	         -0.30307500	          0.00000000	          0.00000000	          0.00000000	          0.00000000	          0.00000000	          0.00000000	          0.00000000	         -4.45294000	          0.00000000	          0.00000000	          0.00000000	          0.00000000	
          4.13125000	       -164.46975700	       1711.30871600	         67.73529100	          1.13710000	          0.00000000	         -0.30337700	          0.00000000	          0.00000000	          0.00000000	          0.00000000	          0.00000000	          0.00000000	          0.00000000	         -4.87583400	          0.00000000	          0.00000000	          0.00000000	          0.00000000	
          4.13229200	       -158.76695300	       1726.50866700	         70.27375000	          1.13290100	          0.00000000	         -0.30366800	          0.00000000	          0.00000000	          0.00000000	          0.00000000	          0.00000000	          0.00000000	          0.00000000	         -5.28190800	          0.00000000	          0.00000000	          0.00000000	          0.00000000	
          4.13333300	       -152.63589500	       1741.18273900	         72.55046100	          1.12866600	          0.00000000	         -0.30394800	          0.00000000	          0.00000000	          0.00000000	          0.00000000	          0.00000000	          0.00000000	          0.00000000	         -5.67022600	          0.00000000	          0.00000000	          0.00000000	          0.00000000	
          4.13437500	       -146.12814300	       1755.31311000	         74.56650500	          1.12440400	          0.00000000	         -0.30421800	          0.00000000	          0.00000000	          0.00000000	          0.00000000	          0.00000000	          0.00000000	          0.00000000	         -6.03996400	          0.00000000	          0.00000000	          0.00000000	          0.00000000	
          4.13541700	       -139.29728700	       1768.88073700	         76.32576800	          1.12012500	          0.00000000	         -0.30447800	          0.00000000	          0.00000000	          0.00000000	          0.00000000	          0.00000000	          0.00000000	          0.00000000	         -6.39040800	          0.00000000	          0.00000000	          0.00000000	          0.00000000	
          4.13645800	       -132.19741800	       1781.86621100	         77.83472400	          1.11583900	          0.00000000	         -0.30472700	          0.00000000	          0.00000000	          0.00000000	          0.00000000	          0.00000000	          0.00000000	          0.00000000	         -6.72095600	          0.00000000	          0.00000000	          0.00000000	          0.00000000	
          4.13750000	       -124.88162200	       1794.25036600	         79.10224900	          1.11155400	          0.00000000	         -0.30496700	          0.00000000	          0.00000000	          0.00000000	          0.00000000	          0.00000000	          0.00000000	          0.00000000	         -7.03112300	          0.00000000	          0.00000000	          0.00000000	          0.00000000	
          4.13854200	       -117.40058100	       1806.01513700	         80.13936600	          1.10728000	          0.00000000	         -0.30519600	          0.00000000	          0.00000000	          0.00000000	          0.00000000	          0.00000000	          0.00000000	          0.00000000	         -7.32053000	          0.00000000	          0.00000000	          0.00000000	          0.00000000	
          4.13958300	       -109.80135300	       1817.14355500	         80.95895400	          1.10302500	          0.00000000	         -0.30541500	          0.00000000	          0.00000000	          0.00000000	          0.00000000	          0.00000000	          0.00000000	          0.00000000	         -7.58891300	          0.00000000	          0.00000000	          0.00000000	          0.00000000	
          4.14062500	       -102.12626600	       1827.62097200	         81.57545500	          1.09879500	          0.00000000	         -0.30562300	          0.00000000	          0.00000000	          0.00000000	          0.00000000	          0.00000000	          0.00000000	          0.00000000	         -7.83611400	          0.00000000	          0.00000000	          0.00000000	          0.00000000	
          4.14166700	        -94.41206400	       1837.43444800	         82.00454700	          1.09459500	          0.00000000	         -0.30581900	          0.00000000	          0.00000000	          0.00000000	          0.00000000	          0.00000000	          0.00000000	          0.00000000	         -8.06208000	          0.00000000	          0.00000000	          0.00000000	          0.00000000	
          4.14270800	        -86.68931600	       1846.57409700	         82.26283300	          1.09042800	          0.00000000	         -0.30600200	          0.00000000	          0.00000000	          0.00000000	          0.00000000	          0.00000000	          0.00000000	          0.00000000	         -8.26685800	          0.00000000	          0.00000000	          0.00000000	          0.00000000	
          4.14375000	        -78.98207100	       1855.03210400	         82.36748500	          1.08629800	          0.00000000	         -0.30617300	          0.00000000	          0.00000000	          0.00000000	          0.00000000	          0.00000000	          0.00000000	          0.00000000	         -8.45059200	          0.00000000	          0.00000000	          0.00000000	          0.00000000	
